HIERARCHY
ROOT Pelvis
{
	OFFSET 0.000000 0.000000 0.000000
	CHANNELS 6 Xposition Yposition Zposition Xrotation Yrotation Zrotation
	JOINT LeftUpLeg_virtual
	{
		OFFSET 0.000000 0.000000 0.000000
		CHANNELS 3 Xrotation Yrotation Zrotation
		JOINT LeftUpLeg
		{
			OFFSET 18.735201 -5.666702 -4.541200
			CHANNELS 3 Xrotation Yrotation Zrotation
			JOINT LeftLeg
			{
				OFFSET -0.021200 -31.938179 0.493100
				CHANNELS 3 Xrotation Yrotation Zrotation
				JOINT LeftFoot
				{
					OFFSET 0.021200 -31.938179 -4.336299
					CHANNELS 3 Xrotation Yrotation Zrotation
					JOINT LeftToeBase
					{
						OFFSET 0.943001 -26.722000 15.023500
						CHANNELS 3 Xrotation Yrotation Zrotation
						End Site
						{
							OFFSET 0 0 0
						}
					}
				}
			}
		}
	}
	JOINT RightUpLeg_virtual
	{
		OFFSET 0.000000 0.000000 0.000000
		CHANNELS 3 Xrotation Yrotation Zrotation
		JOINT RightUpLeg
		{
			OFFSET -18.735201 -5.666702 -4.541200
			CHANNELS 3 Xrotation Yrotation Zrotation
			JOINT RightLeg
			{
				OFFSET 0.018946 -31.938133 0.493100
				CHANNELS 3 Xrotation Yrotation Zrotation
				JOINT RightFoot
				{
					OFFSET -0.018946 -31.938126 -4.336299
					CHANNELS 3 Xrotation Yrotation Zrotation
					JOINT RightToeBase
					{
						OFFSET -0.943001 -26.722004 15.023500
						CHANNELS 3 Xrotation Yrotation Zrotation
						End Site
						{
							OFFSET 0 0 0
						}
					}
				}
			}
		}
	}
	JOINT Hips_virtual
	{
		OFFSET 0.000000 0.000000 0.000000
		CHANNELS 3 Xrotation Yrotation Zrotation
		JOINT Hips
		{
			OFFSET -0.000000 -0.000000 -0.000000
			CHANNELS 3 Xrotation Yrotation Zrotation
			JOINT Spine
			{
				OFFSET 0.000000 10.199997 -0.299500
				CHANNELS 3 Xrotation Yrotation Zrotation
				JOINT Spine1
				{
					OFFSET 0.000000 11.900002 -1.516600
					CHANNELS 3 Xrotation Yrotation Zrotation
					JOINT Spine2
					{
						OFFSET 0.000000 13.600006 -2.842500
						CHANNELS 3 Xrotation Yrotation Zrotation
						JOINT Neck_virtual
						{
							OFFSET 0.000000 0.000000 0.000000
							CHANNELS 3 Xrotation Yrotation Zrotation
							JOINT Neck
							{
								OFFSET 0.000000 9.624100 -2.890100
								CHANNELS 3 Xrotation Yrotation Zrotation
								JOINT Head
								{
									OFFSET 0.000000 14.068802 -1.351900
									CHANNELS 3 Xrotation Yrotation Zrotation
									End Site
									{
										OFFSET 0 0 0
									}
								}
							}
						}
						JOINT LeftShoulder_virtual
						{
							OFFSET 0.000000 0.000000 0.000000
							CHANNELS 3 Xrotation Yrotation Zrotation
							JOINT LeftShoulder
							{
								OFFSET 15.263000 10.923401 -0.547700
								CHANNELS 3 Xrotation Yrotation Zrotation
								JOINT LeftArm
								{
									OFFSET 25.438599 -2.830597 -13.032500
									CHANNELS 3 Xrotation Yrotation Zrotation
									JOINT LeftForeArm
									{
										OFFSET 29.960503 0.000000 0.000000
										CHANNELS 3 Xrotation Yrotation Zrotation
										JOINT LeftHand
										{
											OFFSET 27.849251 0.000000 0.000000
											CHANNELS 3 Xrotation Yrotation Zrotation
											End Site
											{
												OFFSET 0 0 0
											}
										}
									}
								}
							}
						}
						JOINT RightShoulder_virtual
						{
							OFFSET 0.000000 0.000000 0.000000
							CHANNELS 3 Xrotation Yrotation Zrotation
							JOINT RightShoulder
							{
								OFFSET -15.263000 10.923401 -0.547700
								CHANNELS 3 Xrotation Yrotation Zrotation
								JOINT RightArm
								{
									OFFSET -25.438599 -2.830597 -13.032500
									CHANNELS 3 Xrotation Yrotation Zrotation
									JOINT RightForeArm
									{
										OFFSET -29.960503 0.000000 0.000000
										CHANNELS 3 Xrotation Yrotation Zrotation
										JOINT RightHand
										{
											OFFSET -27.849251 0.000000 0.000000
											CHANNELS 3 Xrotation Yrotation Zrotation
											End Site
											{
												OFFSET 0 0 0
											}
										}
									}
								}
							}
						}
					}
				}
			}
		}
	}
}
MOTION
Frames: 12
Frame Time: 0.03333333
-3.674478 77.577950 4.172045 0.000000 0.000000 0.000000 -7.884974 -20.477093 3.272146 -56.250597 1.117355 22.352363 48.808863 -10.034103 -1.641187 -4.322070 -9.448250 -15.048389 0.000000 0.000000 0.000000 7.900894 -36.886136 -2.172904 -24.466554 -14.269992 -23.497169 46.177270 6.639962 0.708427 -12.062101 1.481853 17.552507 0.000000 0.000000 0.000000 2.097404 -20.061200 1.398487 3.871758 -34.683861 5.701722 10.808317 6.094988 -3.816904 4.869846 4.135589 -2.648151 0.000000 0.000000 0.000000 -0.693837 5.356774 -2.133360 -2.272577 2.704711 -0.472974 0.000000 0.000000 0.000000 -3.089705 3.649579 -3.170970 -4.276234 -2.940245 -10.283363 -28.035201 12.054676 -49.088037 -10.479501 -28.144139 -8.328324 0.000000 0.000000 0.000000 -3.555971 5.447851 -1.478676 -5.641216 20.471745 1.335569 -24.023835 -18.011981 47.118272 -12.012175 27.984018 12.840545 0.000000 0.000000 0.000000 
-2.294403 77.672882 3.823254 0.000000 0.000000 0.000000 -9.512465 -18.533131 2.525274 -57.846361 1.491448 21.896944 49.443511 -11.237815 -1.909114 -3.482488 -10.719200 -16.537568 0.000000 0.000000 0.000000 8.464850 -36.871936 -2.972785 -22.902323 -14.412082 -24.180727 47.340663 7.177315 0.521659 -11.353566 2.129247 17.712422 0.000000 0.000000 0.000000 -0.165817 -19.621144 -0.491116 7.320847 -33.737439 5.617192 10.864389 5.826707 -4.448128 5.126443 4.264859 -2.825591 0.000000 0.000000 0.000000 -0.832279 5.497759 -2.383995 -2.365348 2.904108 -0.365393 0.000000 0.000000 0.000000 -3.579877 3.596859 -3.245421 -4.070371 -3.417480 -9.046529 -30.531396 12.528812 -49.003899 -10.326916 -28.711619 -8.200909 0.000000 0.000000 0.000000 -4.304205 5.985066 -2.209126 -5.210152 21.000639 -0.307274 -21.921449 -21.094944 45.371570 -12.464130 26.159746 13.130515 0.000000 0.000000 0.000000 
-2.672547 78.214317 2.645309 0.000000 0.000000 0.000000 -10.529525 -18.782132 1.306050 -58.714560 1.740440 20.905788 49.968028 -11.170021 -1.919493 -2.534985 -10.826622 -16.658763 0.000000 0.000000 0.000000 8.672634 -36.394192 -2.733294 -22.474235 -14.356422 -23.836626 46.713279 7.876890 0.284931 -11.729889 2.868364 17.779910 0.000000 0.000000 0.000000 1.544729 -19.735277 1.219504 3.625147 -34.020721 4.953289 11.595084 5.662996 -4.742763 4.817682 4.323225 -2.666441 0.000000 0.000000 0.000000 -0.403120 5.706077 -2.342179 -2.543899 3.028973 -0.482466 0.000000 0.000000 0.000000 -4.061451 4.135942 -2.649894 -4.676495 -4.590732 -7.391006 -30.887109 13.213962 -50.113296 -10.286416 -26.217905 -8.635308 0.000000 0.000000 0.000000 -4.625963 6.552850 -2.365706 -4.830919 22.207052 -1.080935 -17.345187 -18.830270 48.714135 -11.632561 24.589743 13.121197 0.000000 0.000000 0.000000 
-3.381762 78.195099 3.510368 0.000000 0.000000 0.000000 -10.782760 -16.887192 0.624693 -59.052579 2.466085 20.484267 50.233439 -10.831870 -1.801680 -2.012770 -10.628369 -16.326406 0.000000 0.000000 0.000000 8.812397 -36.673383 -2.726933 -22.316953 -14.391393 -23.835974 46.965255 8.233380 0.642046 -11.712651 2.946031 18.522259 0.000000 0.000000 0.000000 0.536732 -19.979166 0.366396 6.377698 -35.299244 4.161461 10.722968 5.389102 -4.059000 5.459007 4.532910 -3.108252 0.000000 0.000000 0.000000 -0.342308 5.853630 -2.533418 -2.402723 3.296388 -0.588688 0.000000 0.000000 0.000000 -3.980557 3.947167 -2.800062 -5.087793 -4.632552 -5.925650 -32.827033 12.360481 -50.844048 -11.274910 -28.363800 -9.537714 0.000000 0.000000 0.000000 -4.439629 6.932566 -2.713460 -5.085157 21.401180 -0.970660 -14.747529 -22.720529 49.149973 -11.129332 24.386552 13.844087 0.000000 0.000000 0.000000 
-3.479188 78.147720 2.581741 0.000000 0.000000 0.000000 -10.657864 -16.381717 0.717104 -58.763854 2.560019 20.481384 50.019548 -10.939171 -2.354416 -2.133482 -10.457517 -17.268527 0.000000 0.000000 0.000000 8.711149 -36.585130 -3.226493 -22.378582 -14.265141 -24.274474 48.694765 8.398403 0.176208 -10.683572 3.446447 18.127703 0.000000 0.000000 0.000000 2.277653 -19.353561 0.612662 4.735566 -36.036075 5.149359 11.814436 5.440626 -4.528830 5.591687 4.276666 -2.956421 0.000000 0.000000 0.000000 -0.105450 5.623210 -2.731421 -2.567038 3.279294 -0.641013 0.000000 0.000000 0.000000 -4.327213 3.722573 -2.917177 -5.240717 -4.985648 -5.652428 -30.305846 11.181779 -51.708835 -10.282299 -27.929531 -9.975853 0.000000 0.000000 0.000000 -4.898829 6.760861 -2.604981 -4.834911 20.915989 -1.200714 -13.583356 -24.018944 47.309978 -10.947736 25.457918 13.732759 0.000000 0.000000 0.000000 
-3.103822 77.956078 1.522724 0.000000 0.000000 0.000000 -9.964974 -16.784097 1.495378 -58.355695 2.279416 21.226976 49.254260 -11.159813 -2.479645 -2.566268 -10.608778 -17.610914 0.000000 0.000000 0.000000 8.345887 -36.228242 -3.572016 -22.507994 -14.031487 -24.347195 47.699012 7.951824 0.227981 -10.888392 3.112556 17.756214 0.000000 0.000000 0.000000 0.330277 -23.772197 0.854246 7.165068 -28.809994 2.989626 10.250080 4.949450 -3.894738 5.697880 4.349680 -2.863500 0.000000 0.000000 0.000000 -0.809672 5.837079 -2.678655 -2.464364 3.317135 -0.655369 0.000000 0.000000 0.000000 -4.665592 3.835574 -2.905583 -5.070869 -5.818196 -4.162327 -31.579475 12.975931 -51.147066 -10.383936 -26.961750 -10.198692 0.000000 0.000000 0.000000 -5.060421 6.880400 -2.617920 -4.974709 20.678422 -1.347403 -13.472999 -22.958786 46.940041 -8.727659 22.719875 12.938262 0.000000 0.000000 0.000000 
-3.938366 78.003532 0.976852 0.000000 0.000000 0.000000 -9.269438 -18.476819 2.245295 -57.870151 1.696365 21.846377 48.892950 -11.064152 -2.385656 -2.914853 -10.485654 -17.409722 0.000000 0.000000 0.000000 8.396378 -36.468955 -2.518631 -22.734761 -14.200768 -23.207321 49.153716 7.931553 0.419188 -9.724606 3.162071 18.125237 0.000000 0.000000 0.000000 1.293341 -23.212352 1.570006 4.086668 -28.346644 1.916943 8.913084 5.373997 -3.684419 5.351517 3.769981 -2.779379 0.000000 0.000000 0.000000 -0.874023 5.858154 -2.736806 -2.560689 3.287765 -0.751060 0.000000 0.000000 0.000000 -4.535286 3.945489 -2.880447 -4.730342 -7.076271 -3.165163 -29.992283 12.900972 -50.902651 -9.865803 -27.576368 -10.604088 0.000000 0.000000 0.000000 -5.304330 6.977993 -2.700470 -4.724260 19.071099 -1.529535 -11.787553 -23.961222 46.858673 -8.115255 21.744146 12.972450 0.000000 0.000000 0.000000 
-5.197540 78.457558 1.131771 0.000000 0.000000 0.000000 -8.272801 -18.243992 3.612654 -57.077934 1.366439 22.982205 50.211186 -11.045294 -2.356091 -2.175766 -10.451066 -17.543684 0.000000 0.000000 0.000000 8.360767 -37.598030 -2.701339 -22.750978 -14.527913 -23.579391 50.034510 7.920450 0.152224 -9.057076 3.443566 17.774311 0.000000 0.000000 0.000000 1.583913 -25.689115 1.719204 2.385849 -25.723679 1.580018 10.253004 5.120262 -3.177008 5.306325 3.801489 -2.920082 0.000000 0.000000 0.000000 -0.475074 5.733666 -2.882472 -2.640543 3.083248 -0.661644 0.000000 0.000000 0.000000 -4.520775 3.560318 -3.077086 -5.243278 -7.276066 -2.136477 -29.548611 14.407567 -50.976062 -10.667382 -28.591254 -10.909631 0.000000 0.000000 0.000000 -4.752742 7.222601 -2.965417 -5.043617 19.302366 -0.862554 -12.547589 -24.849070 46.010695 -9.680216 23.407019 14.014887 0.000000 0.000000 0.000000 
-5.034327 78.608299 1.538925 0.000000 0.000000 0.000000 -8.035255 -17.819101 3.334283 -56.912305 1.674635 22.812497 49.931633 -10.732872 -2.350604 -2.636254 -9.966773 -17.306422 0.000000 0.000000 0.000000 8.393898 -37.685456 -2.143433 -22.979850 -14.582720 -23.158311 50.283743 8.277908 0.061859 -9.175022 3.754065 17.909070 0.000000 0.000000 0.000000 2.438638 -26.107502 2.774089 1.066618 -25.679561 1.373046 10.848918 4.827643 -3.476113 5.774869 3.689037 -2.890060 0.000000 0.000000 0.000000 -0.597193 5.728572 -2.958476 -2.664536 3.105270 -0.738471 0.000000 0.000000 0.000000 -4.329831 3.543644 -3.171553 -4.751346 -7.989786 -1.646793 -29.958036 12.941423 -51.372284 -10.641079 -29.888235 -11.514103 0.000000 0.000000 0.000000 -4.798626 7.005430 -3.107740 -4.355907 18.550626 -1.755367 -13.013445 -24.714321 45.601365 -9.720454 23.710877 14.058764 0.000000 0.000000 0.000000 
-4.962328 78.792839 0.673048 0.000000 0.000000 0.000000 -7.856780 -17.710800 2.809495 -56.696553 1.988779 22.370862 50.300406 -10.479931 -2.657488 -2.402515 -9.509224 -17.652952 0.000000 0.000000 0.000000 8.021737 -39.372530 -2.787026 -23.351546 -14.831271 -23.984237 50.460546 8.523997 -0.188602 -9.038177 4.142150 17.736707 0.000000 0.000000 0.000000 3.203956 -26.019583 3.491797 2.252143 -24.398964 1.767935 11.236540 4.982225 -3.394328 5.919256 3.741241 -2.878248 0.000000 0.000000 0.000000 -0.829041 5.736382 -2.953734 -2.818819 3.255288 -0.815837 0.000000 0.000000 0.000000 -4.289835 3.404878 -3.189712 -4.493624 -7.564005 -1.867417 -28.581005 13.778771 -51.013354 -10.338152 -28.680699 -11.595279 0.000000 0.000000 0.000000 -4.939871 7.086946 -2.962085 -4.569114 18.492182 -1.915818 -13.206515 -25.798740 44.962944 -9.990752 25.199628 14.074407 0.000000 0.000000 0.000000 
-4.616212 79.223709 0.622143 0.000000 0.000000 0.000000 -8.273551 -17.946022 2.044882 -57.227208 2.193812 21.831137 48.971203 -10.407008 -2.948673 -3.767164 -9.081321 -18.002832 0.000000 0.000000 0.000000 7.505331 -40.520374 -3.356946 -23.926998 -14.940392 -24.695901 49.847246 8.544156 -0.407403 -9.471576 4.249903 17.347861 0.000000 0.000000 0.000000 3.412039 -25.642007 3.521957 2.806142 -25.204139 1.394469 11.903151 4.713118 -3.642424 6.179680 3.644473 -2.882883 0.000000 0.000000 0.000000 -0.771640 5.661694 -3.116851 -2.807125 3.374123 -0.880082 0.000000 0.000000 0.000000 -3.855614 3.203940 -3.241275 -4.182354 -7.620144 -1.624322 -29.324840 13.409426 -51.098383 -10.348452 -29.842688 -11.742366 0.000000 0.000000 0.000000 -5.077896 6.840184 -3.035396 -4.418954 17.218620 -1.735043 -12.050220 -27.002258 44.749846 -10.501523 26.281272 14.311907 0.000000 0.000000 0.000000 
-4.460656 78.835869 1.134588 0.000000 0.000000 0.000000 -8.210079 -18.696162 2.603392 -57.337129 1.782990 22.322032 49.085318 -10.188378 -2.932248 -3.842003 -8.797537 -17.883988 0.000000 0.000000 0.000000 7.365390 -41.270680 -3.433925 -24.194335 -15.086184 -25.027536 49.237010 8.824177 -0.548071 -9.954156 4.522884 17.272447 0.000000 0.000000 0.000000 3.048424 -27.188487 3.753203 3.081986 -23.245092 1.190332 12.065837 4.786801 -3.588274 6.260949 3.594694 -2.940123 0.000000 0.000000 0.000000 -0.694749 5.629977 -3.142785 -2.861197 3.428358 -0.893906 0.000000 0.000000 0.000000 -3.513961 3.334374 -3.189345 -3.947268 -7.061399 -1.462721 -28.168977 13.963085 -51.559759 -10.415866 -28.689318 -12.008452 0.000000 0.000000 0.000000 -4.772436 6.822270 -3.002295 -4.343322 16.894695 -1.726822 -11.915527 -27.569744 43.758638 -10.618992 27.806735 14.127844 0.000000 0.000000 0.000000 
